<svg xmlns="http://www.w3.org/2000/svg" xmlns:xlink="http://www.w3.org/1999/xlink" version="1.1" width="256" height="256" viewBox="0 0 256 256" xml:space="preserve">
<desc>Created with Fabric.js 1.7.22</desc>
<defs>
</defs>
<g transform="translate(128 128) scale(0.72 0.72)" style="">
	<g style="stroke: none; stroke-width: 0; stroke-dasharray: none; stroke-linecap: butt; stroke-linejoin: miter; stroke-miterlimit: 10; fill: none; fill-rule: nonzero; opacity: 1;" transform="translate(-175.05 -175.05000000000004) scale(3.89 3.89)" >
	<path d="M 11 90 c -2.815 0 -5.63 -1.074 -7.778 -3.222 c -4.295 -4.296 -4.295 -11.261 0 -15.557 l 68 -68 c 4.297 -4.296 11.26 -4.296 15.557 0 c 4.296 4.296 4.296 11.261 0 15.557 l -68 68 C 16.63 88.926 13.815 90 11 90 z" style="stroke: none; stroke-width: 1; stroke-dasharray: none; stroke-linecap: butt; stroke-linejoin: miter; stroke-miterlimit: 10; fill: rgb(214,0,0); fill-rule: nonzero; opacity: 1;" transform=" matrix(1 0 0 1 0 0) " stroke-linecap="round" />
	<path d="M 79 90 c -2.815 0 -5.63 -1.074 -7.778 -3.222 l -68 -68 c -4.295 -4.296 -4.295 -11.261 0 -15.557 c 4.296 -4.296 11.261 -4.296 15.557 0 l 68 68 c 4.296 4.296 4.296 11.261 0 15.557 C 84.63 88.926 81.815 90 79 90 z" style="stroke: none; stroke-width: 1; stroke-dasharray: none; stroke-linecap: butt; stroke-linejoin: miter; stroke-miterlimit: 10; fill: rgb(214,0,0); fill-rule: nonzero; opacity: 1;" transform=" matrix(1 0 0 1 0 0) " stroke-linecap="round" />
</g>
</g>
</svg>